<?xml version="1.0" standalone="no"?>
<!DOCTYPE svg PUBLIC "-//W3C//DTD SVG 20010904//EN"
 "http://www.w3.org/TR/2001/REC-SVG-20010904/DTD/svg10.dtd">
<svg version="1.0" xmlns="http://www.w3.org/2000/svg"
 width="300.000000pt" height="246.000000pt" viewBox="0 0 300.000000 246.000000"
 preserveAspectRatio="xMidYMid meet">
<metadata>
Created by potrace 1.10, written by Peter Selinger 2001-2011
</metadata>
<g transform="translate(0.000000,246.000000) scale(0.100000,-0.100000)"
fill="#000000" stroke="none">
<path d="M998 2404 c-16 -8 -28 -19 -28 -24 0 -5 -18 -14 -40 -20 -22 -6 -40
-15 -40 -20 0 -6 -16 -28 -36 -50 -32 -36 -36 -44 -26 -65 6 -13 25 -34 41
-46 17 -13 31 -29 31 -36 0 -22 20 -15 29 11 22 56 160 96 204 58 21 -18 22
-50 2 -76 -8 -11 -15 -32 -15 -46 0 -26 -36 -68 -89 -103 -21 -14 -22 -17 -8
-23 11 -4 17 -17 17 -35 0 -16 5 -29 10 -29 6 0 10 17 10 38 0 30 6 42 35 67
30 25 39 43 56 110 11 47 27 85 37 92 52 37 53 46 12 99 -47 62 -50 64 -72 64
-12 0 -31 8 -42 19 -30 27 -57 32 -88 15z m84 -48 c4 -6 8 -17 8 -23 0 -7 4
-13 9 -13 5 0 12 6 14 13 3 7 6 5 6 -5 1 -11 9 -18 20 -18 12 0 23 -11 29 -30
13 -35 5 -42 -34 -31 -16 4 -35 6 -42 3 -8 -2 -25 1 -38 9 -21 11 -27 10 -48
-10 -18 -17 -30 -20 -52 -16 -19 5 -25 3 -16 -3 11 -7 10 -12 -3 -26 -24 -23
-35 -17 -51 29 -17 50 -17 47 5 40 30 -9 51 5 51 35 0 34 35 49 43 19 7 -28
37 -36 53 -15 9 13 10 25 3 43 -8 22 -7 24 13 17 13 -4 26 -12 30 -18z"/>
<path d="M68 2359 c-31 -18 -10 -40 32 -33 23 4 40 2 44 -5 5 -7 -5 -11 -28
-11 l-36 0 0 -54 c0 -29 6 -64 13 -77 22 -42 42 -69 49 -69 4 0 33 -18 64 -40
32 -22 68 -40 82 -40 21 0 18 4 -24 33 -66 44 -98 107 -103 205 -3 73 -4 74
-37 88 -39 16 -34 16 -56 3z"/>
<path d="M2474 2314 c4 -10 31 -113 61 -227 29 -115 56 -211 58 -214 22 -21
317 226 317 266 0 5 -10 13 -22 17 -13 4 -104 43 -203 86 -218 97 -221 97
-211 72z m258 -134 c53 -22 102 -40 107 -40 23 0 9 -19 -41 -57 -29 -22 -85
-70 -124 -107 -40 -36 -75 -66 -78 -66 -3 0 -6 18 -6 39 0 36 -47 236 -69 294
-5 14 -7 27 -5 30 3 3 31 -8 62 -24 31 -15 101 -46 154 -69z"/>
<path d="M860 2152 c0 -5 7 -17 15 -28 8 -10 15 -31 15 -45 0 -16 13 -40 30
-59 25 -26 30 -41 30 -80 0 -47 -1 -48 -54 -80 -60 -36 -103 -95 -113 -152 -3
-21 -8 -38 -12 -39 -3 0 -49 -6 -101 -13 -75 -9 -94 -15 -91 -26 1 -8 14 -58
28 -110 23 -83 26 -117 27 -272 l1 -177 32 -6 c44 -8 73 -69 73 -152 0 -54 3
-62 35 -93 21 -20 35 -44 36 -59 1 -17 3 -20 6 -8 2 9 9 17 14 17 16 0 10 26
-12 46 -32 29 -46 63 -52 131 -5 65 -30 119 -57 126 -14 3 -19 23 -25 98 -11
127 -10 268 2 280 13 13 68 -90 94 -176 l18 -60 -1 65 -2 64 46 -3 c38 -2 46
1 50 17 5 17 -2 20 -69 25 -41 3 -77 8 -79 10 -3 2 2 46 11 98 8 52 15 110 15
130 0 19 5 40 11 46 7 7 26 40 43 75 23 46 43 71 74 91 40 27 47 28 110 22 79
-8 141 -44 153 -87 7 -27 6 -28 -35 -28 -23 0 -47 5 -54 12 -9 9 -12 9 -11 -3
1 -28 15 -53 23 -41 5 8 40 12 102 12 52 0 94 4 94 9 0 16 -103 93 -160 119
-31 15 -69 25 -86 23 -25 -2 -32 2 -37 21 -4 12 -1 25 5 29 15 10 20 41 5 36
-6 -2 -17 6 -23 17 -6 12 -21 40 -33 64 -13 23 -27 42 -32 42 -5 0 -9 8 -9 18
-1 26 -50 80 -50 54z m-125 -563 c5 -22 -9 -101 -21 -117 -6 -9 -63 30 -68 45
-7 25 -5 87 5 93 4 3 23 5 43 6 31 1 36 -3 41 -27z"/>
<path d="M1020 2135 c0 -8 5 -15 10 -15 6 0 10 -6 10 -12 0 -7 7 -22 15 -32
12 -15 18 -17 27 -8 9 9 7 13 -5 18 -9 3 -17 12 -17 20 0 8 -4 14 -10 14 -5 0
-10 7 -10 15 0 8 -4 15 -10 15 -5 0 -10 -7 -10 -15z"/>
<path d="M1905 2111 l-140 -38 -8 -34 c-4 -19 -20 -112 -36 -207 -23 -147 -25
-172 -12 -170 9 2 16 17 18 38 5 47 53 343 56 346 14 11 244 61 251 54 5 -5
-1 -63 -13 -137 -27 -163 -39 -206 -53 -197 -8 5 -9 1 -3 -12 5 -10 9 -50 10
-87 1 -58 5 -73 28 -102 15 -19 27 -38 27 -43 0 -17 -109 -33 -217 -31 -85 2
-115 -2 -138 -14 l-30 -17 45 0 c25 1 86 -1 135 -4 50 -3 81 -2 70 1 -38 12
118 33 285 38 190 6 197 -5 22 -35 -59 -10 -118 -23 -132 -28 -14 -6 -70 -18
-125 -27 -55 -9 -102 -19 -105 -22 -3 -3 13 -3 35 1 22 3 102 15 179 26 76 11
179 27 229 35 74 13 92 14 98 3 7 -10 9 -9 9 3 0 18 20 29 51 29 12 0 19 7 19
19 0 22 -35 31 -115 31 -58 0 -71 10 -81 58 -8 42 -27 43 -26 2 0 -3 3 -15 6
-26 6 -19 1 -23 -41 -32 -86 -19 -121 -23 -127 -13 -3 5 4 12 17 17 18 6 13 8
-24 11 -45 4 -47 5 -59 47 -10 37 -7 72 30 291 22 137 43 252 46 257 10 15
-40 7 -181 -31z"/>
<path d="M415 2110 c-12 -19 5 -29 39 -23 19 3 36 1 40 -6 4 -6 1 -11 -6 -12
-7 -1 -22 -2 -33 -3 -12 0 -21 -9 -23 -21 -3 -25 -39 -67 -69 -83 -57 -31
-144 -1 -211 71 -46 51 -59 59 -42 26 42 -78 137 -139 215 -139 63 0 105 20
148 70 45 53 57 98 31 117 -21 15 -80 17 -89 3z"/>
<path d="M1000 2072 c0 -5 6 -15 13 -24 15 -20 57 -33 57 -19 0 6 -7 11 -15
11 -8 0 -20 9 -27 20 -13 20 -28 27 -28 12z"/>
<path d="M1860 1798 c0 -18 -5 -53 -11 -77 -7 -33 -7 -46 2 -52 7 -4 9 -15 5
-24 -5 -13 -10 -14 -19 -7 -9 8 -16 6 -25 -9 -8 -12 -23 -19 -42 -19 -24 0
-29 4 -27 21 1 12 -3 24 -9 26 -12 4 -30 -84 -20 -94 2 -3 20 2 38 11 18 9 64
24 102 33 73 16 85 12 86 -31 0 -17 -7 -18 -82 -15 -80 4 -82 3 -88 -21 l-7
-25 86 3 c101 4 113 6 105 26 -3 8 -1 23 5 33 7 14 5 23 -8 38 -10 11 -23 34
-29 50 l-10 30 -1 -27 c-1 -18 -6 -28 -16 -28 -17 0 -20 36 -6 72 10 26 -6
118 -21 118 -4 0 -8 -15 -8 -32z"/>
<path d="M1030 1723 c0 -21 -7 -37 -22 -48 -22 -15 -24 -14 -35 12 -12 27 -12
27 -13 -19 l0 -46 -38 5 c-44 6 -92 -14 -116 -49 -19 -26 -21 -64 -4 -74 8 -5
9 0 5 16 -4 18 2 31 28 57 29 29 41 34 72 32 30 -2 50 5 96 36 31 21 57 39 57
40 0 2 -7 18 -15 36 l-14 34 -1 -32z"/>
<path d="M1308 1701 c-114 -10 -209 -19 -211 -22 -11 -12 -137 -228 -137 -233
0 -12 30 -6 30 7 0 6 22 44 48 84 26 39 52 80 58 90 11 17 13 17 37 -5 24 -22
28 -23 161 -16 144 7 144 7 126 -40 -14 -37 -4 -32 26 14 19 29 30 37 35 28 6
-9 11 -5 18 12 5 14 19 39 30 55 25 37 26 45 4 44 -10 -1 -111 -9 -225 -18z
m212 -8 c0 -5 -9 -19 -19 -32 -17 -22 -29 -24 -177 -36 l-159 -12 -24 23 c-14
13 -23 26 -20 28 3 3 90 12 194 19 105 8 193 15 198 16 4 0 7 -2 7 -6z"/>
<path d="M1946 1683 c9 -37 24 -53 24 -26 0 28 -10 53 -21 53 -5 0 -6 -12 -3
-27z"/>
<path d="M1590 1644 c0 -14 4 -23 9 -20 12 7 21 -18 21 -55 0 -19 4 -28 11
-23 6 3 9 15 6 25 -3 12 -1 17 6 12 7 -4 8 0 3 12 -4 12 1 25 15 38 25 24 12
37 -38 37 -29 0 -33 -3 -33 -26z"/>
<path d="M2112 1648 c-17 -17 -15 -63 2 -77 34 -28 84 40 56 74 -15 18 -42 19
-58 3z"/>
<path d="M59 1602 c-55 -143 -57 -148 -38 -136 6 3 22 30 34 58 30 67 41 76
95 71 25 -2 89 -5 142 -5 l97 -1 -29 -77 c-16 -42 -40 -106 -54 -141 -14 -36
-26 -70 -26 -77 0 -10 -7 -11 -27 -4 -16 5 -79 11 -140 13 -112 5 -113 4 -113
-18 0 -23 3 -23 155 -30 86 -4 157 -6 158 -4 2 2 29 71 61 152 53 135 57 150
46 177 -8 20 -20 30 -34 30 -36 0 -218 10 -269 15 -44 4 -49 2 -58 -23z"/>
<path d="M978 1578 c-52 -63 -71 -96 -63 -108 3 -6 10 -8 15 -5 12 7 91 147
86 152 -2 2 -19 -15 -38 -39z"/>
<path d="M1559 1583 c-4 -12 -22 -31 -40 -42 -19 -12 -29 -21 -24 -22 74 -6
79 -14 18 -31 -57 -17 -90 -13 -72 8 7 8 9 17 6 20 -3 3 -13 -6 -22 -20 -28
-42 -95 -28 -95 20 0 32 -12 36 -74 29 -50 -7 -57 -10 -81 -49 -17 -27 -34
-41 -48 -42 -12 -1 -53 -7 -92 -14 -38 -6 -86 -14 -105 -17 -19 -2 -42 -7 -50
-10 -27 -10 22 -21 54 -12 16 5 33 6 38 2 16 -9 339 -5 392 5 41 8 54 7 75 -6
l25 -17 -45 -8 c-24 -4 -146 -8 -270 -10 -202 -2 -225 -4 -222 -18 4 -14 36
-18 206 -29 111 -7 221 -16 244 -20 23 -4 44 -4 45 0 2 4 22 11 45 15 l41 6
-4 -38 c-5 -37 8 -74 21 -61 10 9 10 49 1 75 -6 19 -2 23 26 31 30 8 27 10
-39 16 l-72 8 24 26 c24 26 24 26 4 40 -12 8 -44 18 -72 22 -51 7 -51 8 24 9
77 1 102 -9 92 -36 -5 -13 3 -14 53 -9 32 4 90 9 127 12 45 4 67 10 64 17 -4
12 -34 12 -158 1 -56 -5 -67 -3 -73 11 -3 9 -4 21 -1 25 7 11 83 25 117 22 14
-2 29 2 33 8 9 15 -43 32 -76 25 -27 -6 -28 -5 -31 37 -2 32 -5 37 -9 21z
m-248 -80 c1 -16 1 -36 0 -45 -1 -10 3 -18 8 -18 6 0 11 -5 11 -11 0 -7 -9 -9
-24 -5 -13 3 -44 2 -70 -3 -43 -8 -45 -7 -41 13 2 11 7 38 10 59 6 37 6 37 55
37 48 0 50 -1 51 -27z m-135 -84 c3 -5 -11 -9 -30 -9 -23 0 -36 5 -36 13 0 15
56 11 66 -4z"/>
<path d="M2064 1388 c-5 -7 -7 -165 -6 -351 1 -187 0 -343 -3 -347 -7 -12 -63
18 -75 41 -6 10 -25 26 -42 35 -29 15 -33 15 -80 -11 -39 -22 -52 -25 -58 -14
-7 10 -11 10 -24 0 -15 -12 -20 -8 -17 12 2 11 -17 9 -24 -3 -10 -16 -28 -12
-21 5 6 17 -9 21 -19 5 -11 -18 -26 -10 -20 10 8 24 -7 26 -25 5 -17 -21 -24
-12 -10 14 8 16 8 21 -3 21 -7 0 -19 -6 -26 -12 -11 -11 -12 -8 -7 14 5 22 3
25 -13 21 -24 -6 -16 -44 11 -50 10 -3 18 -12 18 -20 0 -10 7 -14 20 -10 13 3
20 0 20 -9 0 -8 6 -14 13 -12 6 1 26 -5 42 -15 26 -14 26 -18 0 -17 -3 0 -19
-7 -35 -15 -17 -9 -49 -18 -73 -20 -35 -3 -46 0 -69 22 -15 14 -30 40 -33 57
-4 17 -9 38 -11 48 -3 11 5 21 26 31 21 11 30 12 31 4 0 -7 5 -2 11 11 9 19
17 22 40 17 32 -7 37 5 9 22 -15 10 -26 8 -57 -8 -22 -11 -50 -18 -64 -17 -22
3 -25 7 -22 41 2 21 -1 43 -6 50 -6 7 -12 25 -14 40 -3 25 2 30 37 43 22 7 48
14 59 14 15 0 17 5 12 30 -11 58 -48 127 -86 165 -22 21 -41 37 -42 34 -8 -13
12 -370 25 -464 9 -60 17 -111 17 -111 0 -1 9 -4 20 -7 11 -3 25 -19 31 -36 8
-22 16 -30 28 -27 9 3 66 15 126 27 136 26 179 43 193 75 14 30 54 32 82 4 24
-24 18 -40 -14 -40 -13 0 -41 -6 -63 -14 -22 -8 -95 -26 -161 -41 -108 -23
-153 -30 -214 -34 -23 -1 -23 -21 -1 -21 32 0 387 72 413 84 14 6 46 10 72 8
l47 -3 3 -42 c3 -41 4 -42 43 -45 22 -1 35 1 28 5 -8 6 -13 118 -17 407 -3
219 -7 400 -10 403 -2 2 -8 -2 -12 -9z m-566 -230 c22 -24 42 -69 42 -94 0
-18 -44 -19 -59 0 -15 18 -27 116 -14 116 5 0 19 -10 31 -22z"/>
<path d="M1710 1365 c-36 -7 -54 -13 -40 -13 14 -1 54 5 90 12 36 8 54 14 40
14 -14 0 -54 -6 -90 -13z"/>
<path d="M2380 1290 c0 -33 4 -60 8 -60 4 0 8 27 8 60 0 33 -4 60 -8 60 -5 0
-8 -27 -8 -60z"/>
<path d="M871 1293 c-21 -45 -25 -145 -7 -168 14 -19 15 -16 16 45 1 36 3 84
6 108 7 49 2 53 -15 15z"/>
<path d="M1378 1257 c-5 -10 -8 -183 -8 -383 0 -320 -2 -365 -15 -371 -9 -3
-66 -1 -127 5 -67 6 -120 7 -134 1 -22 -8 -24 -6 -25 24 -1 21 -3 25 -6 12 -9
-36 -24 -45 -74 -45 -38 0 -53 5 -67 21 -9 12 -22 26 -28 33 -6 6 -13 26 -17
44 -5 26 -3 32 10 32 14 0 14 2 -2 20 -20 22 -20 23 56 20 26 -1 50 3 54 9 4
7 -16 11 -62 11 -38 0 -74 5 -80 11 -19 19 -26 -10 -10 -44 8 -18 18 -63 22
-102 4 -38 12 -76 17 -83 16 -18 152 -16 172 3 13 13 34 14 159 4 79 -6 152
-9 163 -7 19 3 19 13 14 403 -3 220 -8 392 -12 382z"/>
<path d="M2381 1026 c-1 -126 2 -197 9 -201 7 -4 10 55 10 189 -1 108 -5 198
-9 201 -5 2 -9 -83 -10 -189z"/>
<path d="M951 1060 c1 -42 1 -43 10 -18 7 18 7 33 0 45 -8 14 -10 9 -10 -27z"/>
<path d="M1042 1063 c-43 -60 -65 -135 -25 -85 13 16 14 15 8 -5 -5 -17 -2
-23 9 -23 19 0 39 63 34 110 l-3 35 -23 -32z"/>
<path d="M1573 1015 c3 -11 9 -41 13 -67 3 -26 10 -46 14 -43 9 6 -9 107 -22
120 -7 7 -8 3 -5 -10z"/>
<path d="M980 888 c1 -55 16 -178 24 -185 3 -3 20 -1 38 4 l33 11 -34 1 c-30
1 -33 3 -27 26 3 14 9 36 12 50 5 19 2 25 -10 25 -13 0 -16 11 -16 49 0 28 -4
53 -10 56 -6 4 -10 -11 -10 -37z"/>
<path d="M1675 809 c4 -6 9 -8 12 -5 3 2 20 -4 39 -14 18 -11 36 -15 38 -11 3
5 -14 16 -37 25 -50 19 -61 20 -52 5z"/>
<path d="M665 721 c-3 -10 -15 -21 -25 -24 -23 -6 -26 -30 -6 -50 8 -7 16 -25
18 -38 2 -19 9 -24 33 -24 27 0 31 4 39 43 7 29 15 42 27 42 28 0 49 11 49 26
0 17 -8 17 -48 3 -17 -6 -33 -17 -36 -25 -7 -18 -36 -18 -36 0 0 8 7 17 17 20
14 6 14 8 -3 21 -17 14 -15 14 22 9 24 -4 50 -1 60 5 15 8 6 10 -43 11 -52 0
-63 -3 -68 -19z"/>
<path d="M860 711 c0 -5 16 -9 35 -9 19 0 32 4 29 9 -7 12 -64 12 -64 0z"/>
<path d="M2200 698 c-77 -14 -84 -27 -9 -16 68 11 122 27 84 26 -11 0 -45 -5
-75 -10z"/>
<path d="M2312 673 c3 -33 7 -38 31 -41 26 -3 27 -1 27 37 0 39 -1 41 -31 41
-29 0 -30 -2 -27 -37z"/>
<path d="M1090 681 c0 -22 -18 -31 -63 -32 -18 0 -41 -4 -52 -9 -20 -8 -20 -9
1 -9 12 -1 42 2 67 5 35 5 47 12 56 31 14 29 14 33 1 33 -5 0 -10 -9 -10 -19z"/>
<path d="M806 639 c-4 -14 -6 -50 -4 -80 3 -47 6 -54 26 -57 22 -3 29 8 15 22
-5 4 -13 38 -19 74 -8 55 -12 62 -18 41z"/>
<path d="M1437 643 c-4 -3 -7 -17 -7 -30 0 -28 34 -32 44 -5 3 9 9 23 12 30 6
13 -37 18 -49 5z"/>
<path d="M2652 568 c-173 -150 -307 -273 -310 -284 -4 -18 73 -72 120 -85 84
-22 209 13 267 76 72 78 88 187 42 291 -26 58 -53 58 -119 2z m67 -25 c40 -87
17 -217 -48 -275 -36 -34 -42 -36 -115 -37 -57 -1 -88 4 -121 18 -51 23 -51
39 -1 81 43 36 119 105 195 177 36 34 69 63 72 63 3 0 11 -12 18 -27z"/>
<path d="M925 343 c123 -27 137 -131 34 -248 -17 -19 -36 -35 -43 -35 -7 0
-21 -7 -32 -16 -18 -14 -14 -15 49 -11 73 5 80 10 117 79 32 60 36 110 11 160
-25 52 -65 78 -118 77 -21 -1 -29 -3 -18 -6z"/>
<path d="M790 262 c-56 -25 -110 -97 -110 -144 0 -25 49 -78 72 -78 18 0 18 1
4 16 -23 22 -20 44 13 95 33 52 78 84 136 95 32 6 36 9 20 15 -25 9 -115 10
-135 1z"/>
</g>
</svg>
